{"accessors" : [{"bufferView" : 0, "byteOffset" : 0, "componentType" : 5125, "count" : 3456000, "type" : "SCALAR", "max" : [577560], "min" : [0]}, {"bufferView" : 1, "byteOffset" : 0, "componentType" : 5126, "count" : 577561, "type" : "VEC3", "max" : [9.58823490142822, 6.15808820724487, 2], "min" : [-9.58823490142822, -2.37340688705444, -12.470588684082]}, {"bufferView" : 1, "byteOffset" : 12, "componentType" : 5126, "count" : 577561, "type" : "VEC2", "max" : [1, 0], "min" : [0, -1]}, {"bufferView" : 1, "byteOffset" : 20, "componentType" : 5126, "count" : 577561, "type" : "VEC3", "max" : [1.00000298023224, 1.00000441074371, 1.00000441074371], "min" : [-1.00000429153442, -1.00000238418579, -0.434762835502625]}], "asset" : {"generator" : "Aspose.3D 20.2.1", "version" : "2.0"}, "buffers" : [{"uri" : "buffer.bin", "byteLength" : 32305960}], "bufferViews" : [{"buffer" : 0, "byteOffset" : 0, "byteLength" : 13824000, "target" : 34963}, {"buffer" : 0, "byteOffset" : 13824004, "byteLength" : 18481952, "byteStride" : 32, "target" : 34962}], "meshes" : [{"primitives" : [{"attributes" : {"POSITION" : 1, "TEXCOORD_0" : 2, "NORMAL" : 3}, "indices" : 0, "mode" : 4}]}], "nodes" : [{"mesh" : 0, "name" : ""}], "scene" : 0, "scenes" : [{"nodes" : [0]}]}