<?xml version="1.0" encoding="UTF-8"?>
<svg version="1.1" viewBox="0 0 2048 842" width="1512" height="622" xmlns="http://www.w3.org/2000/svg">
<path transform="translate(1181,7)" d="m0 0h30l9 4 7 5 7 11 2 10 1 18 40-2h19l12 5 6 5 15-6 14-4 14-2h29l17 3 16 6 11 7 8 7 9 13 5 12 2 10v18l-4 16-6 11 2 4 6 5 13 3 12 7 7 7 6 10 3 9 1 6v8l-3 13-6 11-7 7 14-7 10-2 114-5 14 1 6 2 6-1 16-6 16-3h25l17 3 47-2 50-2 12 2 12 6 10 9 3 2 9-10 8-6 12-5 6-1 63-3h36l13 5 11 8 7 9 4 8 3 11 2 37 7 167 1 23v34l-3 23-6 23-8 18-7 13-10 14-14 15-13 11-19 12-17 8-16 6-24 6-20 3-26 2-23-1-27-4-21-6-17-7-12-6v30l-2 10-5 10-8 8-10 5-7 2h-9v24l-1 18-3 10-6 9-7 6-8 4-6 2h-30l-15-2-14-7-18 6-11 2-19 1-21-3-17-5-6 1-7 2h-29l-16-1-11-4-6-4-5 1-8 4-8 2h-16l-20-1-10-1-8 1h-11l-15-3-8-2-18 4h-24l-18-4-10-4-5 1-9 3h-33l-13-2-8-4-9 3-4 1h-32l-13-2-9-4-9 3-4 1h-26l-14-1-12-4-9-7-7-11-3-11v-15l3-88 2-12 4-9-5-9v-3l-80 4h-17l-12-3-11-6-6-5-3-3-7 8-11 7-11 4-6 1-80 4h-11l-15-4-10-6-8-7-5 2-12 7-16 7-18 6-23 5-25 3h-32l-27-4-19-5-20-8-5 1-18 10-16 6-22 5-18 2h-17l-20-3-15-4-16-7-12-8-13-11-8-10-5 15-7 10-8 8-14 7-11 2-82 4-13-1-12-4-10-6-7-6-11 11-12 6-7 2-28 2-45 2h-26l-13-4-11-7-7-7-6-10-3-7-2-15-8-190-1-8-14-7-11-11-7-14-2-8v-14l4-13 7-11 8-8 12-7 7-2 8-1 116-5 16 2 9 3 13-5 21-5 14-2h35l17 3 16 5 17 8 5-1 23-11 19-6 21-4 9-1h29l19 3 17 5 16 8 11 7 10 9 8 8 9 12 21-21 16-12 21-12 16-7 18-6 23-5 16-2h41l23 3 16 4h6l7-3 18-2 70-3 13-1-13-11-10-10-11-15-8-15h-11l-15-1-12 3h-22l-17-5-10-6-11 7-11 5-12 3-10 1h-9l-17-3-12-5-3-1-9 7-10 3-25 2h-16l-8-1-10 3-7 1h-14l-6-1h-8l-17 2h-11l-8-2-7 1-6 2-13 1h-14l-7-1-16 4h-23l-18-4-12-5-10-7-6-7-4-10v-15l3-8-2-10-1-4v-15l3-11 5-10 9-10 10-7 11-5 14-3 13-1 6-11 9-8 10-4 14-1h13l10 3 9 7 6 9 1 2 13 3 5 2 5-1 15-5 12-2h17l14 3 5-1 5-2 6-1 24-1 5-1h19l8 1 11-3 7-1h14l14 3 12 5 10 6 9-7 12-6 13-4 6-1h24l12 3 16 8 8-16 9-13 11-13 11-10 16-11 16-8 16-6 19-4 7-1h33l24 4 10 2h16l10 3 6 4 7 7 4 8 1 4v29l14-4 12-2h33l17 3 13 4-9-7-6-8-3-9v-12l3-9 7-9 9-6 6-2 8-1zm294 238-1 2 3-1z" fill="#FCFCFC"/>
<path transform="translate(1958,268)" d="m0 0h17l2 37 8 190v22l-3 21-4 14-7 16-9 13-11 12-15 11-15 8-17 6-20 5-16 2-13 1h-17l-26-3-15-4-17-7-16-10-12-11-6-7 3-1 13 4 22 4 28 2 26-1 18-4 13-5 11-7 8-7 7-11 4-11 2-13v-24l-24 9-19 4-22 2h-17l-17-2-15-4-17-8-11-9-8-9-8-15-4-13-2-11-2-36-4-97-2-14-4-10-4-5-2-1v9l-7 52-4-4-9-12-9-8-12-6-4-1h-17l-9 4-8 7-7 10-5 13-2 10v31l5 119v14l-1 1-71 3h-7l-1-3-8-191-1-18-3-13-6-9-7-6-13-5v-1l88-4h20l1 15v25l3-3 6-11 8-10 11-11 13-8 12-4 6-1h16l9 2 2 1h22l62-3h19l1 4 6 144 1 20 2 14 4 13 7 11 8 6 10 4 6 1h15l18-4 10-5-6-211 1-1z"/>
<path transform="translate(420,328)" d="m0 0h17l17 3 14 5 10 7 5 4 8 11 6 12 4 15 2 18 5 115 3 11 6 9 5 4 10 4 13 1 17-2 7-1-5 10-10 11-14 9-12 5-17 4-8 1h-20l-15-3-12-5-11-8-7-8-6-10-5-16-2-18-4-97-2-21-4-14-7-10-8-5-7-2h-14l-12 4-8 6-6 7-5 11-3 12v37l5 119v20l-4 1-65 3h-11l-2-5v-6-3l-3-64-4-92-2-16-5-13-6-8-9-5-4-1h-17l-11 4-8 6-6 8-5 11-3 17v15l6 145v10l-33 2-27 1h-21l-1-1-5-114-4-93-3-14-4-8-6-7-11-6-4-1v-2l89-4h20l1 22 1 6 12-12 15-10 15-7 18-5 14-2h24l15 3 15 6 9 7 8 8 7 12 17-17 14-10 19-9 19-5z"/>
<path transform="translate(1118,299)" d="m0 0h30l16 4 16 8 11 10 7 11 6 15 3 16 2 39 3 70 1 17 2 9 6 10 9 6 9 3h15l19-2-2 6-8 10-9 8-17 9-18 5-7 1h-27l-16-4-12-6-10-9-7-9-6-13-3-12-2-34-4-89-3-17-4-10-7-8-10-5-6-1h-8l-12 3-9 5-8 9-6 13-2 9-1 17 6 144v17l-63 3h-18l-1-4v-7-2l-1-10-6-146-2-15-4-12-6-9-5-4-11-4h-13l-10 3-10 6-6 7-5 10-3 11-1 7v24l6 148-4 1-70 3h-8l-2-37-7-168-2-15-6-12-9-8-9-4-4-2 8-1 91-4h11l1 5 1 24 12-12 13-9 16-8 17-5 21-3h16l14 2 15 5 11 7 9 8 7 11 1 4 17-17 14-10 16-8 16-5z"/>
<path transform="translate(1369,282)" d="m0 0h38l19 3 21 6 21 10 14 10 12 11 10 13 8 14 6 14 5 18 2 12 1 11v21l-3 21-5 17-5 12-6 11-8 11-11 12-10 9-15 10-21 10-20 6-14 3-18 2h-25l-22-3-19-5-18-8-14-9-11-9-8-8-11-15-8-16-6-17-4-19-1-8v-34l4-21 6-17 9-17 9-12 9-10 10-9 15-10 16-8 21-7 19-4z"/>
<path transform="translate(670,315)" d="m0 0h31l21 3 17 5 15 8 10 8 7 10 4 9 2 8v21l-5 15-9 13-9 9-14 10-21 11-24 9-25 7-27 6-11 2h-5l5 20 5 12 8 12 9 9 14 8 11 4 10 2h30l20-4 19-7 15-8 14-10 1 2-8 16-9 11-10 10-14 10-17 9-21 7-20 4-24 2-20-1-19-3-16-5-13-6-12-7-13-11-9-10-10-16-7-16-5-19-2-12-1-11v-18l3-22 6-20 8-17 8-12 8-10 14-14 14-10 16-9 21-8 24-5z"/>
<path transform="translate(931,42)" d="m0 0h23l24 4 11 2 16 1-1 48-1 7-3-3-8-14-7-9-10-10-13-8-9-3-6-1h-11l-12 3-9 5-7 6-7 10-6 13-5 21-1 7v36l3 19 4 15 8 16 8 10 10 7 13 5 6 1h16l12-3 14-7 12-11 7-9-4-17-1-17 2-14 4-12 6-11 9-10 9-8 16-8 17-5 6-1h27l17 4 16 8 9 7 8 9 8 15 4 15 1 8v12l-3 17-5 12-7 11-12 12-14 8-10 4-12 3-7 1h-26l-17-4-16-8-12-11-3-3v-2l-16 16-10 7-14 7-19 5-8 1h-23l-17-3-15-5-13-7-10-8-12-12-11-18-5-13-4-18-1-8v-19l3-18 6-18 8-15 11-14 7-7 14-10 15-8 15-5z" fill="#EE202B"/>
<path transform="translate(1189,39)" d="m0 0h14l1 6 5 103 1 6 13-16 20-26 4-7-1-6-5-5-7-5v-1l31-2 24-1-2 4-10 13-14 18-12 15-5 7 1 4 16 24 11 15 9 12 9 10 6 4 9 1-9-12-6-12-4-16-1-9v-9l3-17 5-12 6-10 9-10 8-7 17-9 13-4 13-2h21l15 3 9 4 8 6 5 7 3 10v10l-3 10-6 8-9 8-15 8-18 6-33 7 4 15 6 11 8 7 7 3 6 1h8l15-3 12-5 10-6 10-9 1 2-8 16-9 10-7 6-16 8-13 3h-27l-16-4-10-4-10 6-10 4-9 2h-14l-12-3-10-6-9-9-28-42-2-1-2 5-2 2 1 30 1 23-4 1-21 1h-20l-1-5-6-120-2-44-2-10-4-6-5-4-5-2v-1l7-1z" fill="#EE202B"/>
<path transform="translate(1377,301)" d="m0 0h14l11 4 10 8 9 14 6 15 5 19 3 20 2 26v44l-2 19-4 18-6 16-7 11-9 8-8 4-9 2h-10l-13-4-9-7-8-10-7-15-5-16-5-30-2-25v-48l3-21 4-16 8-16 7-9 9-7z" fill="#FCFCFC"/>
<path transform="translate(1138,631)" d="m0 0h15l10 3 9 6 7 6v-2l9-6 10-4 4-1h18l11 4 9 6 6 7 4 9 1 4v33l-1 35-1 4h-26v-65l-3-6-5-4-2-1h-15l-8 5-4 6-1 4-2 59h-26l-1-1v-22l1-38-3-9-5-5-12-2-8 2-7 5-3 6-1 9-2 53h-21l-6-1 1-43 2-55h25l1 1-1 8 11-7z"/>
<path transform="translate(1313,636)" d="m0 0h14l12 2 12 5 9 7 6 10 3 10v44l3 3 7 1v16l-1 5-4 1h-8l-9-2-8-5-4-5v-2h-2v2l-8 6-9 4-4 1h-22l-13-4-9-6-6-8-2-5v-16l5-10 7-6 8-4 11-3 9-1h19l14 1-4-9-5-5-6-2h-18l-13 4-6 3-7-10-5-9 1-3 13-6z"/>
<path transform="translate(1551,644)" d="m0 0h20l12 3 11 6 9 8 7 11 4 12 1 6v12l-1 5-50-1-28-1 4 8 8 7 9 3h18l11-4 5-3 4 1 9 12 3 5-9 7-13 5-13 2-18-1-15-4-12-7-9-9-6-10-3-10-1-6v-10l3-14 6-12 9-10 11-7 9-3z"/>
<path transform="translate(1402,605)" d="m0 0h26l1 2-2 66v11l12-11 13-12 15-14 5-4 32 1-14 14-8 7-15 14-3 1 4 8 32 48 4 7h-26l-6-2-15-23-12-18-8 6-11 10-1 20-1 5h-13l-13-1v-29l3-99z"/>
<path transform="translate(665,337)" d="m0 0 13 1 10 5 7 7 6 12 2 8v23l-3 14-6 12-8 9-13 8-15 6-19 5-6 1h-9l-1-11v-25l3-26 5-18 7-14 9-10 12-6z" fill="#FBFBFB"/>
<path transform="translate(1069,108)" d="m0 0h9l10 5 6 8 5 11 3 14 2 17v29l-3 17-5 12-6 7-9 4h-10l-9-4-6-7-5-11-4-16-2-17v-32l4-18 5-9 4-5 7-4z" fill="#FCFCFC"/>
<path transform="translate(1639,648)" d="m0 0 25 1 1 11 8-7 12-4h17l2 1v25h-20l-11 4-6 7-2 7-2 47-1 8h-19l-7-1v-28l2-68z"/>
<path transform="translate(765,113)" d="m0 0h16l9 3 8 7 4 10 2 28 1 2 6 1 1 11-2 2h-11l-7-4-2-3-7 6-7 3-5 1h-12l-11-4-6-7-2-7 1-8 4-6 8-6 13-3 21-1-3-7-4-3-4-1h-9l-11 4-5 2-7-8 1-4 7-4z" fill="#EE202B"/>
<path transform="translate(555,123)" d="m0 0 13 1 9 4 5 5 4 6 1 4 2 31 7 1 1 10-1 2-9 1-8-3-3-3v-2l-9 7-8 3h-17l-9-4-6-7-2-6 1-9 6-8 8-4 14-3 17-1-1-5-4-4-3-1h-13l-12 5h-3l-6-8v-3l8-5 11-3z" fill="#EE202B"/>
<path transform="translate(668,118)" d="m0 0h19l9 4 8 7 5 8 2 6v12l-9 1-42 2 4 7 6 4 3 1h13l8-3 4-3 4 1 6 7-2 4-10 6-8 2h-18l-11-4-10-9-4-8-2-9v-7l4-13 6-8 9-6z" fill="#EE202B"/>
<path transform="translate(467,105)" d="m0 0 2 1 1 9v19l7-4 7-3 11-1 10 3 6 4 5 7 2 6 2 37v8h-15l-1-7-2-33-3-6-5-3h-11l-6 3-4 5v43l-14 1-1-1-4-74v-13z" fill="#EE202B"/>
<path transform="translate(413,130)" d="m0 0h13l13 3 7 4-2 5-4 6-5-1-9-3h-13l-6 3-1 5 4 2 22 3 9 3 5 4 3 6v11l-6 9-9 5-10 2h-12l-16-4-7-4 6-11 5 1 12 4h13l7-3 1-7-20-3-11-2-8-5-4-6-1-7 3-9 8-7z" fill="#EE202B"/>
<path transform="translate(1355,95)" d="m0 0 10 1 7 6 4 9 2 9v13l-5 10-8 6-11 5-13 3h-5l-1-2v-15l2-17 4-13 6-10 5-4z" fill="#FBFBFB"/>
<path transform="translate(631,120)" d="m0 0h10v14l-14 2-6 4-3 4-1 4 1 37-1 1h-14l-1-1-2-43v-19l5-1h9l1 7 7-6z" fill="#EE202B"/>
<path transform="translate(1314,695)" d="m0 0h11l17 1-2 9-7 8-10 5-4 1h-21l4-1-5-7-1-6 3-5 4-3z" fill="#F7F7F7"/>
<path transform="translate(1556,667)" d="m0 0h11l9 3 7 5 5 9v3l-37-1-15-1 2-6 6-7 8-4z" fill="#F8F8F8"/>
<path transform="translate(1443,196)" d="m0 0h9l6 4 3 5v8l-4 6-4 3h-11l-5-4-3-6 1-8 6-7z" fill="#F5F5F5"/>
<path transform="translate(560,160)" d="m0 0h13l-2 9-8 7-5 2h-11l-5-3-1-2v-6l4-4 6-2z" fill="#FAFAFA"/>
<path transform="translate(784,149)" d="m0 0h4l-1 7-4 6-6 4-7 2-10-1-4-4v-7l5-4 8-2z" fill="#FAFAFA"/>
<path transform="translate(672,131)" d="m0 0h11l8 4 5 8v1l-7 1-30 1 1-5 4-6z" fill="#F9F9F9"/>
<path transform="translate(1443,196)" d="m0 0h9l6 4 3 5v8l-4 6-4 3h-11l-5-4-3-6 1-8 6-7zm0 4-5 6v6l3 5 4 2 8-1 4-5v-8l-5-5z" fill="#EE202B"/>
<path transform="translate(1443,202)" d="m0 0h8l3 5-2 5 2 3-4-1-5-3 1 4h-3l-1-4v-8z" fill="#EF434C"/>
<path transform="translate(972,546)" d="m0 0h1l1 11h15v1l-15 1-5-12z" fill="#CCCBCB"/>
</svg>
