<svg xmlns="http://www.w3.org/2000/svg" width="216.647" height="36.093" viewBox="0 0 216.647 36.093">
  <g id="Group_380" data-name="Group 380" transform="translate(13635 -3740.563)">
    <g id="Group_377" data-name="Group 377" transform="translate(-13802.791 4427.542)">
      <g id="Group_3" data-name="Group 3" transform="translate(169.791 -692.542)">
        <g id="Group_1" data-name="Group 1" transform="translate(36.198 5.563)">
          <path id="Path_1" data-name="Path 1" d="M448-602.6a18.778,18.778,0,0,1-3.315-.292,18.072,18.072,0,0,1-3.138-.859,19.606,19.606,0,0,1-2.844-1.327,14.277,14.277,0,0,1-2.393-1.7l5.688-6.18a9.117,9.117,0,0,0,2.609,1.883,7.343,7.343,0,0,0,3.354.824,3.615,3.615,0,0,0,1.432-.275,1.015,1.015,0,0,0,.647-1.022,1.054,1.054,0,0,0-.216-.668,2.453,2.453,0,0,0-.765-.569,12.4,12.4,0,0,0-1.51-.648q-.962-.353-2.413-.826a20.508,20.508,0,0,1-2.707-1.12,9.555,9.555,0,0,1-2.295-1.592,6.982,6.982,0,0,1-1.589-2.259,7.719,7.719,0,0,1-.589-3.164,8.567,8.567,0,0,1,1.059-4.4,9.264,9.264,0,0,1,2.726-2.967,11.162,11.162,0,0,1,3.746-1.67,17.2,17.2,0,0,1,4.119-.511,15.952,15.952,0,0,1,5.59,1.059,14.949,14.949,0,0,1,5,3.06L454.4-621.9a6.077,6.077,0,0,0-2.315-1.785,6.2,6.2,0,0,0-2.471-.608,3.914,3.914,0,0,0-1.648.294,1,1,0,0,0-.628.961,1,1,0,0,0,.647.941,17.927,17.927,0,0,0,2.1.785q1.49.471,3.138,1.1a13.318,13.318,0,0,1,3.04,1.628,8.563,8.563,0,0,1,2.295,2.452,6.721,6.721,0,0,1,.9,3.609,9.113,9.113,0,0,1-1,4.374,9.445,9.445,0,0,1-2.628,3.1,11.393,11.393,0,0,1-3.668,1.844A14.491,14.491,0,0,1,448-602.6Z" transform="translate(-436.311 634.612)" fill="#f0f0f0"/>
          <path id="Path_2" data-name="Path 2" d="M628.021-552.964h-8.827v-2.275h-.079a6.576,6.576,0,0,1-2.334,1.981,7.308,7.308,0,0,1-3.55.844,7.534,7.534,0,0,1-3.609-.765,6.318,6.318,0,0,1-2.256-2,7.777,7.777,0,0,1-1.177-2.785,14.586,14.586,0,0,1-.334-3.079V-573.6h9.062v10.906a3.646,3.646,0,0,0,.5,2.2,1.776,1.776,0,0,0,1.485.628,1.808,1.808,0,0,0,1.486-.726,3.321,3.321,0,0,0,.574-2.1V-573.6h9.062Z" transform="translate(-582.829 584.191)" fill="#f0f0f0"/>
          <path id="Path_3" data-name="Path 3" d="M801.894-620.771a13.46,13.46,0,0,1-.607,4,11.27,11.27,0,0,1-1.781,3.511,8.883,8.883,0,0,1-2.935,2.491,8.5,8.5,0,0,1-4.07.942,9.283,9.283,0,0,1-3.64-.726,5.971,5.971,0,0,1-2.622-1.981h-.078v2.158H778v-29.657h9.062v10.67h.079a5.754,5.754,0,0,1,2.386-1.628,8.278,8.278,0,0,1,2.974-.569,8.5,8.5,0,0,1,4.069.942,9,9,0,0,1,2.934,2.471,11.128,11.128,0,0,1,1.78,3.452A12.957,12.957,0,0,1,801.894-620.771Zm-8.4,0a3.592,3.592,0,0,0-.863-2.393,3.106,3.106,0,0,0-2.511-1.02,3.363,3.363,0,0,0-2.57,1.02,3.376,3.376,0,0,0-.961,2.393,3.471,3.471,0,0,0,.961,2.471,3.361,3.361,0,0,0,2.57,1.02,3.135,3.135,0,0,0,2.511-1A3.679,3.679,0,0,0,793.5-620.771Z" transform="translate(-731.596 641.601)" fill="#f0f0f0"/>
          <path id="Path_4" data-name="Path 4" d="M939.171-573.6h10.043l2.942,11.141h.157l2.825-11.141h9.689l-7.963,20.635h-9.847Z" transform="translate(-870.874 584.191)" fill="#f0f0f0"/>
          <path id="Path_5" data-name="Path 5" d="M1119.4-577.094h8.709v2.354h.078a5.472,5.472,0,0,1,1.981-2.079,5.676,5.676,0,0,1,3.08-.824,6.275,6.275,0,0,1,1.726.2l-.706,7.689a6.319,6.319,0,0,0-.961-.177,8.8,8.8,0,0,0-.961-.059,3.9,3.9,0,0,0-2.825,1.02,3.349,3.349,0,0,0-1.059,2.511v10H1119.4Z" transform="translate(-1026.628 587.686)" fill="#f0f0f0"/>
          <path id="Path_6" data-name="Path 6" d="M1230.909-564.507a6.489,6.489,0,0,1-.879,3.491,6.94,6.94,0,0,1-2.226,2.256,9.623,9.623,0,0,1-2.948,1.216,13.472,13.472,0,0,1-3.049.373,18.255,18.255,0,0,1-5.237-.765,14.007,14.007,0,0,1-4.453-2.177l4.433-5.139a7.5,7.5,0,0,0,2.216,1.393,6.38,6.38,0,0,0,2.452.53,2.218,2.218,0,0,0,.883-.177.645.645,0,0,0,.412-.647q0-.509-.726-.8a20.2,20.2,0,0,0-2.53-.726,11.673,11.673,0,0,1-2-.686,7.169,7.169,0,0,1-1.863-1.2,6.067,6.067,0,0,1-1.393-1.824,5.594,5.594,0,0,1-.549-2.569,6.313,6.313,0,0,1,.883-3.413,7.352,7.352,0,0,1,2.236-2.295,9.894,9.894,0,0,1,2.942-1.295,11.976,11.976,0,0,1,3-.412,16.444,16.444,0,0,1,4.747.706,15.748,15.748,0,0,1,4.237,1.962l-4.237,5.061a9.464,9.464,0,0,0-2-.981,6.1,6.1,0,0,0-2-.353,2.92,2.92,0,0,0-1.1.177.673.673,0,0,0-.432.687q0,.392.488.608a13.91,13.91,0,0,0,2.246.569,11.783,11.783,0,0,1,2.363.726,8.3,8.3,0,0,1,2.07,1.255,5.718,5.718,0,0,1,1.465,1.863A5.754,5.754,0,0,1,1230.909-564.507Z" transform="translate(-1106.751 589.182)" fill="#f0f0f0"/>
          <path id="Path_7" data-name="Path 7" d="M1351.912-646.956a4.36,4.36,0,0,1,.373-1.785,4.636,4.636,0,0,1,1.02-1.471,5,5,0,0,1,1.51-1,4.6,4.6,0,0,1,1.844-.373,4.235,4.235,0,0,1,1.765.373,5.155,5.155,0,0,1,1.471,1,4.648,4.648,0,0,1,1.02,1.471,4.372,4.372,0,0,1,.373,1.785,4.464,4.464,0,0,1-.373,1.824,4.414,4.414,0,0,1-1.02,1.451,5.008,5.008,0,0,1-1.471.961,4.434,4.434,0,0,1-1.765.353,4.822,4.822,0,0,1-1.844-.353,4.876,4.876,0,0,1-1.51-.961,4.4,4.4,0,0,1-1.02-1.451A4.453,4.453,0,0,1,1351.912-646.956Zm.157,5.963h9.062v20.635h-9.062Z" transform="translate(-1227.558 651.585)" fill="#f0f0f0"/>
          <path id="Path_8" data-name="Path 8" d="M1411.41-573.6h10.043l2.942,11.141h.157l2.825-11.141h9.69l-7.964,20.635h-9.847Z" transform="translate(-1278.975 584.191)" fill="#f0f0f0"/>
          <path id="Path_9" data-name="Path 9" d="M1607.936-568.077q0,.51-.02,1.04t-.059.883H1593.97a1.772,1.772,0,0,0,.373.981,3.212,3.212,0,0,0,.824.745,3.736,3.736,0,0,0,1.1.471,4.906,4.906,0,0,0,1.236.157,4.411,4.411,0,0,0,2.1-.451,3.975,3.975,0,0,0,1.275-1l6.433,3.256a9.477,9.477,0,0,1-3.982,3.531,13.475,13.475,0,0,1-6.061,1.294,13.68,13.68,0,0,1-4.354-.706,11.1,11.1,0,0,1-3.746-2.1,10.238,10.238,0,0,1-2.609-3.472,11.189,11.189,0,0,1-.981-4.825,11.362,11.362,0,0,1,.9-4.609,10.325,10.325,0,0,1,2.452-3.491,10.977,10.977,0,0,1,3.648-2.217,12.728,12.728,0,0,1,4.492-.784,11.307,11.307,0,0,1,4.433.843,10.059,10.059,0,0,1,3.433,2.354,10.584,10.584,0,0,1,2.216,3.59A12.68,12.68,0,0,1,1607.936-568.077Zm-7.807-2.942a2.3,2.3,0,0,0-.8-1.8,3.185,3.185,0,0,0-2.177-.706,3.128,3.128,0,0,0-2.314.824,3,3,0,0,0-.941,1.687Z" transform="translate(-1429.486 589.182)" fill="#f0f0f0"/>
        </g>
      </g>
    </g>
    <g id="Group_378" data-name="Group 378" transform="translate(-13804.791 3372.105)">
      <g id="Group_18" data-name="Group 18" transform="translate(169.791 368.458)">
        <rect id="Rectangle_31" data-name="Rectangle 31" width="23.106" height="10.597" transform="translate(0 16.339) rotate(-45.001)" fill="#558eff"/>
        <rect id="Rectangle_32" data-name="Rectangle 32" width="23.106" height="10.597" transform="translate(5.43 28.6) rotate(-45.001)" fill="#558eff"/>
      </g>
    </g>
  </g>
</svg>
