<svg width="305" height="105" viewBox="0 0 305 105" fill="none" xmlns="http://www.w3.org/2000/svg">
<rect width="208" height="105" fill="#1D69AB"/>
<rect x="211" y="4" width="90" height="97" stroke="#1D69AB" stroke-width="8"/>
<path d="M227.639 67L231.276 45.1818H237.028L236.403 49.0312H236.645C237.308 47.7528 238.231 46.7443 239.415 46.0057C240.608 45.267 241.948 44.8977 243.435 44.8977C244.912 44.8977 246.115 45.2718 247.043 46.0199C247.98 46.7585 248.52 47.7623 248.662 49.0312H248.889C249.533 47.7812 250.504 46.7822 251.801 46.0341C253.098 45.2765 254.547 44.8977 256.148 44.8977C258.165 44.8977 259.708 45.5464 260.778 46.8438C261.848 48.1411 262.185 49.9687 261.787 52.3267L259.344 67H253.293L255.565 53.5199C255.745 52.2983 255.565 51.3892 255.026 50.7926C254.486 50.1866 253.733 49.8835 252.767 49.8835C251.669 49.8835 250.755 50.2339 250.026 50.9347C249.296 51.6259 248.847 52.5398 248.676 53.6761L246.418 67H240.551L242.852 53.392C243.013 52.3125 242.838 51.4602 242.327 50.8352C241.825 50.2008 241.072 49.8835 240.068 49.8835C239.405 49.8835 238.776 50.054 238.179 50.3949C237.592 50.7263 237.095 51.1951 236.688 51.8011C236.28 52.3977 236.015 53.0985 235.892 53.9034L233.676 67H227.639ZM273.967 67.4261C271.732 67.4261 269.881 66.9716 268.413 66.0625C266.946 65.1439 265.913 63.8466 265.317 62.1705C264.73 60.4848 264.63 58.4915 265.018 56.1903C265.397 53.946 266.16 51.9763 267.305 50.2812C268.461 48.5862 269.91 47.2652 271.652 46.3182C273.394 45.3712 275.336 44.8977 277.476 44.8977C278.915 44.8977 280.217 45.1297 281.382 45.5938C282.556 46.0483 283.532 46.7396 284.308 47.6676C285.085 48.5862 285.615 49.7367 285.899 51.1193C286.193 52.5019 286.188 54.1212 285.885 55.9773L285.615 57.6392H267.206L267.788 53.8892H280.516C280.658 53.018 280.601 52.2462 280.345 51.5739C280.089 50.9015 279.663 50.3759 279.067 49.9972C278.47 49.6089 277.736 49.4148 276.865 49.4148C275.975 49.4148 275.142 49.6326 274.365 50.0682C273.589 50.5038 272.935 51.0767 272.405 51.7869C271.884 52.4877 271.548 53.25 271.396 54.0739L270.729 57.7955C270.539 58.9413 270.577 59.893 270.842 60.6506C271.117 61.4081 271.59 61.9763 272.263 62.3551C272.935 62.7244 273.787 62.9091 274.82 62.9091C275.492 62.9091 276.122 62.8144 276.709 62.625C277.305 62.4356 277.836 62.1562 278.3 61.7869C278.764 61.4081 279.143 60.9394 279.436 60.3807L284.962 60.75C284.45 62.0947 283.674 63.2689 282.632 64.2727C281.59 65.267 280.336 66.0436 278.868 66.6023C277.41 67.1515 275.776 67.4261 273.967 67.4261Z" fill="#1D69AB"/>
<path d="M22.1591 75H11.6136L35.4091 28.4545H48.0909L56.4091 75H45.8636L40.2045 39.0909H39.8409L22.1591 75ZM24.5682 56.7045H49.4773L48.1591 64.3864H23.25L24.5682 56.7045ZM62.0114 75L69.7386 28.4545H79.4205L76.5568 45.9545H76.8295C77.4053 45.0152 78.178 44.0606 79.1477 43.0909C80.1326 42.1061 81.3371 41.2879 82.7614 40.6364C84.1856 39.9697 85.875 39.6364 87.8295 39.6364C90.375 39.6364 92.6098 40.303 94.5341 41.6364C96.4583 42.9545 97.8447 44.947 98.6932 47.6136C99.5417 50.2652 99.6326 53.5909 98.9659 57.5909C98.3295 61.4848 97.1553 64.7727 95.4432 67.4545C93.7462 70.1212 91.7083 72.1439 89.3295 73.5227C86.9659 74.8864 84.4583 75.5682 81.8068 75.5682C79.928 75.5682 78.3826 75.2576 77.1705 74.6364C75.9735 74.0152 75.0417 73.2348 74.375 72.2955C73.7083 71.3409 73.2311 70.3788 72.9432 69.4091H72.4659L71.5568 75H62.0114ZM74.3977 57.5455C74.0644 59.6212 74.0568 61.4318 74.375 62.9773C74.7083 64.5227 75.3447 65.7273 76.2841 66.5909C77.2386 67.4394 78.4886 67.8636 80.0341 67.8636C81.625 67.8636 83.0341 67.4318 84.2614 66.5682C85.5038 65.6894 86.5341 64.4773 87.3523 62.9318C88.1705 61.3712 88.7462 59.5758 89.0795 57.5455C89.3977 55.5303 89.4053 53.7576 89.1023 52.2273C88.7992 50.697 88.178 49.5 87.2386 48.6364C86.2992 47.7727 85.0265 47.3409 83.4205 47.3409C81.8598 47.3409 80.4583 47.7576 79.2159 48.5909C77.9886 49.4242 76.9583 50.6061 76.125 52.1364C75.3068 53.6667 74.7311 55.4697 74.3977 57.5455ZM118.335 75.6818C114.775 75.6818 111.828 74.9242 109.494 73.4091C107.161 71.8788 105.517 69.7576 104.562 67.0455C103.623 64.3182 103.449 61.1439 104.04 57.5227C104.616 53.947 105.813 50.8182 107.631 48.1364C109.449 45.4545 111.759 43.3712 114.562 41.8864C117.366 40.3864 120.525 39.6364 124.04 39.6364C127.585 39.6364 130.525 40.4015 132.858 41.9318C135.191 43.447 136.835 45.5682 137.79 48.2955C138.744 51.0227 138.926 54.197 138.335 57.8182C137.744 61.3788 136.532 64.5 134.699 67.1818C132.866 69.8636 130.555 71.9545 127.767 73.4545C124.979 74.9394 121.835 75.6818 118.335 75.6818ZM119.29 68.1818C120.926 68.1818 122.373 67.7197 123.631 66.7955C124.903 65.8561 125.956 64.5833 126.79 62.9773C127.638 61.3561 128.229 59.5227 128.562 57.4773C128.896 55.4621 128.919 53.6742 128.631 52.1136C128.343 50.5379 127.737 49.2955 126.812 48.3864C125.903 47.4773 124.653 47.0227 123.062 47.0227C121.426 47.0227 119.972 47.4924 118.699 48.4318C117.426 49.3561 116.373 50.6288 115.54 52.25C114.706 53.8712 114.123 55.7121 113.79 57.7727C113.472 59.7727 113.449 61.5606 113.722 63.1364C113.994 64.697 114.593 65.9318 115.517 66.8409C116.441 67.7348 117.699 68.1818 119.29 68.1818ZM166.631 60.1364L169.972 40.0909H179.653L173.835 75H164.54L165.585 68.6591H165.222C164.146 70.7045 162.578 72.3485 160.517 73.5909C158.456 74.8333 156.116 75.4545 153.494 75.4545C151.161 75.4545 149.191 74.9242 147.585 73.8636C145.994 72.803 144.866 71.2955 144.199 69.3409C143.532 67.3864 143.419 65.0455 143.858 62.3182L147.585 40.0909H157.267L153.858 60.5909C153.54 62.6515 153.828 64.2803 154.722 65.4773C155.616 66.6742 156.979 67.2727 158.812 67.2727C159.979 67.2727 161.108 67.0076 162.199 66.4773C163.305 65.9318 164.259 65.1288 165.062 64.0682C165.866 63.0076 166.388 61.697 166.631 60.1364ZM205.966 40.0909L204.761 47.3636H183.716L184.943 40.0909H205.966ZM191.08 31.7273H200.761L195.352 64.2727C195.201 65.1667 195.223 65.8636 195.42 66.3636C195.617 66.8485 195.943 67.1894 196.398 67.3864C196.867 67.5833 197.428 67.6818 198.08 67.6818C198.534 67.6818 198.996 67.6439 199.466 67.5682C199.936 67.4773 200.292 67.4091 200.534 67.3636L200.898 74.5682C200.352 74.7348 199.617 74.9167 198.693 75.1136C197.784 75.3106 196.708 75.4318 195.466 75.4773C193.102 75.5682 191.102 75.2576 189.466 74.5455C187.83 73.8182 186.655 72.7045 185.943 71.2045C185.231 69.7045 185.08 67.8182 185.489 65.5455L191.08 31.7273Z" fill="white"/>
</svg>
